# xmcd CD database file
#
# Track frame offsets:
#	150
#	17095
#	38956
#
# Disc length: 777 seconds
#
# Revision: 0
# Processed by: cddbd v1.5.1PL0 Copyright (c) Steve Scherf et al.
# Submitted via: CDex 1.51
#
DISCID=1c030703
DTITLE=Emily Barwick - Emily
DYEAR=1999
DGENRE=Country
TTITLE0=You Never
TTITLE1=When Your Gone
TTITLE2=After All
EXTD=YEAR: 1999
EXTT0=
EXTT1=
EXTT2=
PLAYORDER=
